<svg width="126" height="26" viewBox="0 0 126 26" fill="none" xmlns="http://www.w3.org/2000/svg">
<path d="M1.68 19.272C1.184 18.904 0.856 18.464 0.696 17.952C0.536 17.424 0.416 16.848 0.336 16.224C0.352 16.048 0.376 15.768 0.408 15.384C0.456 15 0.504 14.568 0.552 14.088C0.616 13.592 0.664 13.072 0.696 12.528C0.744 11.984 0.792 11.472 0.84 10.992C0.888 10.496 0.92 10.056 0.936 9.672C0.968 9.272 0.992 8.984 1.008 8.808C1.024 8.696 1.032 8.512 1.032 8.256V6.648C1.032 6.392 1.024 6.208 1.008 6.096L1.368 5.76L7.44 3.744H8.112C8.176 3.92 8.184 4.112 8.136 4.32C8.088 4.528 7.96 4.664 7.752 4.728L2.712 6.792L2.376 7.104C2.36 7.12 2.336 7.264 2.304 7.536C2.288 7.792 2.256 8.104 2.208 8.472C2.176 8.824 2.136 9.184 2.088 9.552C2.056 9.92 2.04 10.232 2.04 10.488C2.04 10.536 2.032 10.648 2.016 10.824C2.016 10.984 2.016 11.152 2.016 11.328C2.016 11.504 2.016 11.672 2.016 11.832C2.032 11.992 2.04 12.104 2.04 12.168L7.752 9.144C7.848 9.08 7.92 9.088 7.968 9.168C8.016 9.248 8.04 9.352 8.04 9.48C8.04 9.608 8.016 9.744 7.968 9.888C7.92 10.016 7.848 10.104 7.752 10.152C7.544 10.296 7.28 10.464 6.96 10.656C6.64 10.832 6.304 11.024 5.952 11.232C5.616 11.424 5.272 11.616 4.92 11.808C4.584 12 4.272 12.176 3.984 12.336C3.712 12.48 3.488 12.608 3.312 12.72C3.152 12.816 3.064 12.864 3.048 12.864H1.68V17.232C1.68 17.824 1.816 18.2 2.088 18.36C2.36 18.536 2.696 18.576 3.096 18.48C3.512 18.384 3.952 18.192 4.416 17.904C4.896 17.616 5.344 17.312 5.76 16.992C6.192 16.672 6.56 16.376 6.864 16.104C7.168 15.816 7.36 15.632 7.44 15.552C7.472 15.232 7.544 14.968 7.656 14.76C7.72 14.568 7.816 14.44 7.944 14.376C8.072 14.296 8.24 14.352 8.448 14.544C8.512 14.944 8.44 15.384 8.232 15.864C8.04 16.328 7.752 16.784 7.368 17.232C7 17.664 6.56 18.064 6.048 18.432C5.552 18.8 5.04 19.088 4.512 19.296C3.984 19.52 3.472 19.64 2.976 19.656C2.48 19.672 2.048 19.544 1.68 19.272ZM20.9778 15.888C20.9618 15.824 20.9058 15.712 20.8098 15.552C20.7298 15.376 20.6658 15.264 20.6178 15.216C20.4738 15.152 20.2098 15.064 19.8258 14.952C19.4578 14.824 19.0578 14.688 18.6258 14.544C18.1938 14.384 17.7858 14.24 17.4018 14.112C17.0178 13.984 16.7458 13.896 16.5858 13.848C16.5538 13.832 16.4738 13.792 16.3458 13.728C16.2178 13.648 16.0738 13.568 15.9138 13.488C15.7538 13.392 15.6098 13.312 15.4818 13.248C15.3538 13.184 15.2658 13.152 15.2178 13.152C14.9778 13.152 14.7458 13.304 14.5218 13.608C14.3138 13.912 14.0978 14.288 13.8738 14.736C13.6498 15.168 13.4178 15.632 13.1778 16.128C12.9378 16.624 12.6658 17.08 12.3618 17.496C12.0578 17.896 11.7298 18.208 11.3778 18.432C11.0258 18.656 10.6258 18.704 10.1778 18.576V17.904C10.2738 17.792 10.4178 17.616 10.6098 17.376C10.8018 17.12 11.0178 16.84 11.2578 16.536C11.5138 16.216 11.7778 15.888 12.0498 15.552C12.3218 15.216 12.5778 14.888 12.8178 14.568C13.0578 14.248 13.2658 13.968 13.4418 13.728C13.6338 13.472 13.7778 13.28 13.8738 13.152C14.0338 12.944 14.0578 12.64 13.9458 12.24C13.8498 11.84 13.6898 11.416 13.4658 10.968C13.2578 10.52 13.0258 10.072 12.7698 9.624C12.5298 9.16 12.3538 8.768 12.2418 8.448C12.1458 8.112 12.1538 7.872 12.2658 7.728C12.3938 7.584 12.7218 7.6 13.2498 7.776C13.4098 8.32 13.6498 8.88 13.9698 9.456C14.3058 10.032 14.7218 10.48 15.2178 10.8C15.6338 10.528 16.0258 10.168 16.3938 9.72C16.7618 9.256 17.1058 8.736 17.4258 8.16C17.7458 7.568 18.0338 6.944 18.2898 6.288C18.5618 5.632 18.8018 4.984 19.0098 4.344C19.2338 3.704 19.4258 3.096 19.5858 2.52C19.7458 1.944 19.8738 1.448 19.9698 1.032C20.0818 0.855999 20.2258 0.719999 20.4018 0.623999C20.5938 0.512 20.7858 0.424 20.9778 0.36C21.0578 0.471999 21.1138 0.759999 21.1458 1.224C21.1778 1.672 21.1938 2.224 21.1938 2.88C21.1938 3.52 21.1778 4.24 21.1458 5.04C21.1298 5.84 21.1138 6.648 21.0978 7.464C21.0978 8.264 21.1058 9.048 21.1218 9.816C21.1378 10.584 21.1698 11.264 21.2178 11.856C21.2818 12.448 21.3698 12.928 21.4818 13.296C21.6098 13.664 21.7778 13.848 21.9858 13.848H24.0258V15.048H22.3218C22.0978 15.048 22.0098 15.2 22.0578 15.504C22.1058 15.792 22.2258 16.16 22.4178 16.608C22.6098 17.056 22.8258 17.552 23.0658 18.096C23.3218 18.656 23.5378 19.192 23.7138 19.704C23.8898 20.216 23.9858 20.672 24.0018 21.072C24.0338 21.488 23.9218 21.784 23.6658 21.96C23.6178 21.992 23.5058 22.008 23.3298 22.008C23.1538 22.008 23.0338 21.992 22.9698 21.96C22.9218 21.72 22.8018 21.312 22.6098 20.736C22.4178 20.16 22.2098 19.544 21.9858 18.888C21.7778 18.248 21.5698 17.648 21.3618 17.088C21.1698 16.512 21.0418 16.112 20.9778 15.888ZM17.5938 12.84C17.6738 12.888 17.8178 12.96 18.0258 13.056C18.2498 13.136 18.4818 13.232 18.7218 13.344C18.9778 13.456 19.2258 13.56 19.4658 13.656C19.7058 13.736 19.8738 13.8 19.9698 13.848C20.0018 13.864 20.0498 13.872 20.1138 13.872C20.1938 13.872 20.2498 13.864 20.2818 13.848C20.3458 13.32 20.3458 12.656 20.2818 11.856C20.2338 11.04 20.1618 10.216 20.0658 9.384C19.9858 8.536 19.8978 7.728 19.8018 6.96C19.7218 6.176 19.6658 5.56 19.6338 5.112L15.9138 11.832C15.9618 11.88 16.0658 11.952 16.2258 12.048C16.4018 12.144 16.5698 12.248 16.7298 12.36C16.9058 12.456 17.0738 12.552 17.2338 12.648C17.4098 12.744 17.5298 12.808 17.5938 12.84ZM27.5652 19.272C26.8292 18.968 26.2612 18.568 25.8612 18.072C25.4772 17.592 25.2132 17.096 25.0692 16.584C24.9252 16.056 24.8772 15.544 24.9252 15.048C24.9892 14.552 25.0932 14.152 25.2372 13.848C25.3812 13.544 25.5412 13.376 25.7172 13.344C25.9092 13.312 26.0692 13.488 26.1972 13.872C26.0532 14.672 26.0532 15.376 26.1972 15.984C26.3412 16.592 26.5732 17.096 26.8932 17.496C27.2292 17.896 27.6292 18.184 28.0932 18.36C28.5572 18.552 29.0292 18.648 29.5092 18.648C30.0052 18.664 30.4852 18.576 30.9492 18.384C31.4292 18.208 31.8372 17.952 32.1732 17.616C32.5092 17.264 32.7572 16.832 32.9172 16.32C33.0772 15.792 33.0932 15.2 32.9652 14.544C32.8852 14.24 32.7012 13.872 32.4132 13.44C32.1412 13.008 31.8292 12.552 31.4772 12.072C31.1252 11.576 30.7572 11.072 30.3732 10.56C30.0052 10.048 29.6932 9.56 29.4372 9.096C29.1972 8.616 29.0372 8.176 28.9572 7.776C28.8932 7.376 28.9892 7.048 29.2452 6.792C29.4532 6.616 29.7572 6.36 30.1572 6.024C30.5732 5.688 31.0132 5.352 31.4772 5.016C31.9572 4.664 32.4452 4.368 32.9412 4.128C33.4532 3.872 33.9172 3.744 34.3332 3.744C34.6212 3.744 34.7732 3.792 34.7892 3.888C34.8052 3.968 34.7332 4.088 34.5732 4.248C34.4292 4.392 34.2132 4.568 33.9252 4.776C33.6372 4.984 33.3172 5.208 32.9652 5.448C32.6292 5.672 32.2852 5.92 31.9332 6.192C31.5972 6.464 31.3092 6.736 31.0692 7.008C30.8292 7.264 30.6532 7.52 30.5412 7.776C30.4452 8.032 30.4612 8.264 30.5892 8.472C31.0532 9.128 31.5172 9.8 31.9812 10.488C32.4612 11.16 32.8692 11.824 33.2052 12.48C33.5572 13.136 33.8212 13.776 33.9972 14.4C34.1892 15.024 34.2212 15.624 34.0932 16.2C33.9652 16.776 33.6452 17.328 33.1332 17.856C32.6372 18.368 31.9012 18.84 30.9252 19.272C30.3332 19.512 29.7732 19.624 29.2452 19.608C28.7172 19.608 28.1572 19.496 27.5652 19.272ZM39.2179 24.504C38.8979 24.104 38.7059 23.632 38.6419 23.088C38.5779 22.544 38.5939 21.976 38.6899 21.384C38.8019 20.792 38.9699 20.184 39.1939 19.56C39.4179 18.952 39.6659 18.368 39.9379 17.808C40.2099 17.248 40.4979 16.728 40.8019 16.248C41.1059 15.768 41.3699 15.376 41.5939 15.072C42.1379 14.336 42.5859 13.704 42.9379 13.176C43.2899 12.632 43.5299 12.096 43.6579 11.568C43.7859 11.04 43.7939 10.48 43.6819 9.888C43.5699 9.296 43.3299 8.552 42.9619 7.656C42.5459 9.416 42.0259 10.952 41.4019 12.264C40.7939 13.56 40.1779 14.592 39.5539 15.36C38.9299 16.128 38.3299 16.6 37.7539 16.776C37.1779 16.936 36.7059 16.76 36.3379 16.248C35.9859 15.736 35.7779 14.856 35.7139 13.608C35.6499 12.36 35.8099 10.696 36.1939 8.616C36.2579 8.424 36.4019 8.312 36.6259 8.28C36.8499 8.248 37.0419 8.256 37.2019 8.304V14.712C37.2019 15.272 37.2819 15.616 37.4419 15.744C37.6179 15.872 37.8259 15.864 38.0659 15.72C38.3059 15.56 38.5619 15.312 38.8339 14.976C39.1219 14.624 39.3859 14.272 39.6259 13.92C39.8819 13.552 40.0979 13.224 40.2739 12.936C40.4499 12.632 40.5539 12.432 40.5859 12.336C40.6339 12.16 40.7139 11.888 40.8259 11.52C40.9539 11.136 41.0819 10.696 41.2099 10.2C41.3539 9.704 41.4979 9.192 41.6419 8.664C41.7859 8.12 41.9219 7.608 42.0499 7.128C42.1779 6.632 42.2899 6.192 42.3859 5.808C42.4979 5.408 42.5699 5.112 42.6019 4.92C42.6499 4.824 42.7219 4.744 42.8179 4.68C42.9299 4.616 43.0339 4.576 43.1299 4.56C43.2419 4.544 43.3459 4.568 43.4419 4.632C43.5379 4.68 43.6019 4.776 43.6339 4.92L44.9539 11.352C44.9859 11.432 45.0899 11.448 45.2659 11.4C45.4419 11.352 45.6579 11.264 45.9139 11.136C46.1699 10.992 46.4499 10.832 46.7539 10.656C47.0579 10.464 47.3379 10.28 47.5939 10.104C47.8659 9.912 48.0979 9.752 48.2899 9.624C48.4979 9.48 48.6259 9.376 48.6739 9.312C49.0899 9.376 49.3059 9.496 49.3219 9.672C49.3379 9.848 49.2339 10.064 49.0099 10.32C48.7859 10.56 48.4819 10.824 48.0979 11.112C47.7139 11.384 47.3299 11.648 46.9459 11.904C46.5619 12.144 46.2099 12.376 45.8899 12.6C45.5859 12.808 45.4019 12.952 45.3379 13.032C45.3379 13.16 45.3299 13.352 45.3139 13.608C45.2979 13.864 45.2739 14.168 45.2419 14.52C45.2259 14.856 45.2019 15.208 45.1699 15.576C45.1539 15.928 45.1299 16.272 45.0979 16.608C45.0819 16.944 45.0579 17.24 45.0259 17.496L44.9539 18.096C44.9379 18.256 44.8819 18.52 44.7859 18.888C44.6899 19.272 44.5539 19.696 44.3779 20.16C44.2179 20.64 44.0179 21.136 43.7779 21.648C43.5539 22.176 43.3059 22.672 43.0339 23.136C42.7779 23.616 42.4979 24.04 42.1939 24.408C41.8899 24.776 41.5699 25.04 41.2339 25.2C40.9139 25.376 40.5779 25.416 40.2259 25.32C39.8899 25.224 39.5539 24.952 39.2179 24.504ZM40.2499 23.808C40.4419 24.096 40.6579 24.2 40.8979 24.12C41.1379 24.04 41.3779 23.848 41.6179 23.544C41.8579 23.256 42.0899 22.896 42.3139 22.464C42.5539 22.032 42.7619 21.6 42.9379 21.168C43.1299 20.752 43.2819 20.376 43.3939 20.04C43.5219 19.72 43.6019 19.52 43.6339 19.44C43.8099 18.56 43.9219 17.656 43.9699 16.728C44.0179 15.8 44.0179 14.904 43.9699 14.04C43.6019 14.344 43.2099 14.736 42.7939 15.216C42.3779 15.696 41.9779 16.216 41.5939 16.776C41.2259 17.336 40.8819 17.928 40.5619 18.552C40.2419 19.176 40.0019 19.792 39.8419 20.4C39.6979 21.024 39.6419 21.624 39.6739 22.2C39.7219 22.792 39.9139 23.328 40.2499 23.808ZM54.7081 18.912C54.7401 18.016 54.7321 17.12 54.6841 16.224C54.6521 15.312 54.6041 14.408 54.5401 13.512C54.4761 12.616 54.4201 11.72 54.3721 10.824C54.3401 9.912 54.3401 9.016 54.3721 8.136C54.2281 8.168 54.0041 8.224 53.7001 8.304C53.4121 8.368 53.0761 8.448 52.6921 8.544C52.3241 8.624 51.9241 8.72 51.4921 8.832C51.0761 8.928 50.6761 9.024 50.2921 9.12C49.9241 9.2 49.5881 9.28 49.2841 9.36C48.9961 9.424 48.7801 9.464 48.6361 9.48C48.4601 9.528 48.2841 9.512 48.1081 9.432C47.9321 9.336 47.7721 9.24 47.6281 9.144L48.3001 8.472C50.3641 8.28 52.3801 7.888 54.3481 7.296C56.3321 6.688 58.2521 5.96 60.1081 5.112H61.1401C61.1881 5.208 61.1801 5.312 61.1161 5.424C61.0681 5.536 60.9881 5.648 60.8761 5.76C60.7801 5.856 60.6761 5.936 60.5641 6L60.4441 6.096L55.7401 7.8C55.7241 7.8 55.7081 7.96 55.6921 8.28C55.6921 8.584 55.6921 8.952 55.6921 9.384C55.6921 9.8 55.6921 10.24 55.6921 10.704C55.7081 11.168 55.7241 11.544 55.7401 11.832C55.7401 11.944 55.7481 12.176 55.7641 12.528C55.7801 12.88 55.7961 13.288 55.8121 13.752C55.8441 14.2 55.8681 14.688 55.8841 15.216C55.9161 15.728 55.9401 16.216 55.9561 16.68C55.9881 17.144 56.0121 17.552 56.0281 17.904C56.0441 18.24 56.0601 18.464 56.0761 18.576C56.0761 18.8 56.0121 19 55.8841 19.176C55.7561 19.368 55.6121 19.496 55.4521 19.56C55.3081 19.624 55.1561 19.616 54.9961 19.536C54.8521 19.456 54.7561 19.248 54.7081 18.912ZM65.3757 19.272C65.3597 19.032 65.3357 18.672 65.3037 18.192C65.2877 17.728 65.2717 17.2 65.2557 16.608C65.2557 16 65.2397 15.368 65.2077 14.712C65.1757 14.04 65.1437 13.408 65.1117 12.816C65.0957 12.224 65.0797 11.696 65.0637 11.232C65.0637 10.752 65.0637 10.392 65.0637 10.152C65.0637 10.072 65.0557 9.936 65.0397 9.744C65.0397 9.552 65.0397 9.352 65.0397 9.144C65.0397 8.92 65.0397 8.712 65.0397 8.52C65.0557 8.328 65.0637 8.2 65.0637 8.136C64.9037 8.2 64.7117 8.328 64.4877 8.52C64.2797 8.712 64.0557 8.928 63.8157 9.168C63.5757 9.392 63.3277 9.6 63.0717 9.792C62.8157 9.984 62.5757 10.104 62.3517 10.152C62.0637 9.976 61.9277 9.752 61.9437 9.48C61.9757 9.208 62.1197 8.92 62.3757 8.616C62.6477 8.312 63.0077 8 63.4557 7.68C63.9037 7.36 64.3917 7.048 64.9197 6.744C65.4637 6.44 66.0157 6.168 66.5757 5.928C67.1517 5.688 67.6957 5.488 68.2077 5.328C68.7197 5.168 69.1757 5.064 69.5757 5.016C69.9757 4.952 70.2717 4.984 70.4637 5.112C70.8317 5.48 71.0077 5.944 70.9917 6.504C70.9757 7.048 70.8477 7.64 70.6077 8.28C70.3837 8.92 70.0797 9.584 69.6957 10.272C69.3277 10.96 68.9677 11.624 68.6157 12.264C68.2637 12.904 67.9677 13.504 67.7277 14.064C67.4877 14.624 67.3757 15.112 67.3917 15.528C67.4077 15.928 67.5917 16.224 67.9437 16.416C68.3117 16.608 68.9277 16.656 69.7917 16.56C70.2237 16.448 70.6797 16.28 71.1597 16.056C71.6397 15.832 72.1037 15.576 72.5517 15.288C73.0157 15 73.4397 14.704 73.8237 14.4C74.2237 14.096 74.5597 13.808 74.8317 13.536C75.2957 13.648 75.5517 13.816 75.5997 14.04C75.6477 14.264 75.5517 14.512 75.3117 14.784C75.0877 15.056 74.7517 15.344 74.3037 15.648C73.8557 15.936 73.3437 16.224 72.7677 16.512C72.2077 16.784 71.6157 17.032 70.9917 17.256C70.3837 17.464 69.7917 17.632 69.2157 17.76C68.6557 17.872 68.1517 17.92 67.7037 17.904C67.2557 17.888 66.9357 17.776 66.7437 17.568C66.7437 17.648 66.7357 17.792 66.7197 18C66.7037 18.192 66.6717 18.392 66.6237 18.6C66.5917 18.808 66.5277 19.008 66.4317 19.2C66.3517 19.392 66.2237 19.528 66.0477 19.608C65.9197 19.656 65.7917 19.632 65.6637 19.536C65.5357 19.456 65.4397 19.368 65.3757 19.272ZM66.4077 15L69.9837 7.008C69.8877 6.704 69.7277 6.496 69.5037 6.384C69.2957 6.256 69.0557 6.2 68.7837 6.216C68.5117 6.216 68.2317 6.272 67.9437 6.384C67.6717 6.496 67.4157 6.64 67.1757 6.816C66.9357 6.976 66.7357 7.152 66.5757 7.344C66.4157 7.52 66.3357 7.688 66.3357 7.848L66.4077 15ZM87.3919 15.888C87.3759 15.824 87.3199 15.712 87.2239 15.552C87.1439 15.376 87.0799 15.264 87.0319 15.216C86.8879 15.152 86.6239 15.064 86.2399 14.952C85.8719 14.824 85.4719 14.688 85.0399 14.544C84.6079 14.384 84.1999 14.24 83.8159 14.112C83.4319 13.984 83.1599 13.896 82.9999 13.848C82.9679 13.832 82.8879 13.792 82.7599 13.728C82.6319 13.648 82.4879 13.568 82.3279 13.488C82.1679 13.392 82.0239 13.312 81.8959 13.248C81.7679 13.184 81.6799 13.152 81.6319 13.152C81.3919 13.152 81.1599 13.304 80.9359 13.608C80.7279 13.912 80.5119 14.288 80.2879 14.736C80.0639 15.168 79.8319 15.632 79.5919 16.128C79.3519 16.624 79.0799 17.08 78.7759 17.496C78.4719 17.896 78.1439 18.208 77.7919 18.432C77.4399 18.656 77.0399 18.704 76.5919 18.576V17.904C76.6879 17.792 76.8319 17.616 77.0239 17.376C77.2159 17.12 77.4319 16.84 77.6719 16.536C77.9279 16.216 78.1919 15.888 78.4639 15.552C78.7359 15.216 78.9919 14.888 79.2319 14.568C79.4719 14.248 79.6799 13.968 79.8559 13.728C80.0479 13.472 80.1919 13.28 80.2879 13.152C80.4479 12.944 80.4719 12.64 80.3599 12.24C80.2639 11.84 80.1039 11.416 79.8799 10.968C79.6719 10.52 79.4399 10.072 79.1839 9.624C78.9439 9.16 78.7679 8.768 78.6559 8.448C78.5599 8.112 78.5679 7.872 78.6799 7.728C78.8079 7.584 79.1359 7.6 79.6639 7.776C79.8239 8.32 80.0639 8.88 80.3839 9.456C80.7199 10.032 81.1359 10.48 81.6319 10.8C82.0479 10.528 82.4399 10.168 82.8079 9.72C83.1759 9.256 83.5199 8.736 83.8399 8.16C84.1599 7.568 84.4479 6.944 84.7039 6.288C84.9759 5.632 85.2159 4.984 85.4239 4.344C85.6479 3.704 85.8399 3.096 85.9999 2.52C86.1599 1.944 86.2879 1.448 86.3839 1.032C86.4959 0.855999 86.6399 0.719999 86.8159 0.623999C87.0079 0.512 87.1999 0.424 87.3919 0.36C87.4719 0.471999 87.5279 0.759999 87.5599 1.224C87.5919 1.672 87.6079 2.224 87.6079 2.88C87.6079 3.52 87.5919 4.24 87.5599 5.04C87.5439 5.84 87.5279 6.648 87.5119 7.464C87.5119 8.264 87.5199 9.048 87.5359 9.816C87.5519 10.584 87.5839 11.264 87.6319 11.856C87.6959 12.448 87.7839 12.928 87.8959 13.296C88.0239 13.664 88.1919 13.848 88.3999 13.848H90.4399V15.048H88.7359C88.5119 15.048 88.4239 15.2 88.4719 15.504C88.5199 15.792 88.6399 16.16 88.8319 16.608C89.0239 17.056 89.2399 17.552 89.4799 18.096C89.7359 18.656 89.9519 19.192 90.1279 19.704C90.3039 20.216 90.3999 20.672 90.4159 21.072C90.4479 21.488 90.3359 21.784 90.0799 21.96C90.0319 21.992 89.9199 22.008 89.7439 22.008C89.5679 22.008 89.4479 21.992 89.3839 21.96C89.3359 21.72 89.2159 21.312 89.0239 20.736C88.8319 20.16 88.6239 19.544 88.3999 18.888C88.1919 18.248 87.9839 17.648 87.7759 17.088C87.5839 16.512 87.4559 16.112 87.3919 15.888ZM84.0079 12.84C84.0879 12.888 84.2319 12.96 84.4399 13.056C84.6639 13.136 84.8959 13.232 85.1359 13.344C85.3919 13.456 85.6399 13.56 85.8799 13.656C86.1199 13.736 86.2879 13.8 86.3839 13.848C86.4159 13.864 86.4639 13.872 86.5279 13.872C86.6079 13.872 86.6639 13.864 86.6959 13.848C86.7599 13.32 86.7599 12.656 86.6959 11.856C86.6479 11.04 86.5759 10.216 86.4799 9.384C86.3999 8.536 86.3119 7.728 86.2159 6.96C86.1359 6.176 86.0799 5.56 86.0479 5.112L82.3279 11.832C82.3759 11.88 82.4799 11.952 82.6399 12.048C82.8159 12.144 82.9839 12.248 83.1439 12.36C83.3199 12.456 83.4879 12.552 83.6479 12.648C83.8239 12.744 83.9439 12.808 84.0079 12.84ZM95.8033 19.608L92.1073 9.144C92.0593 9.08 91.9713 8.976 91.8433 8.832C91.7153 8.672 91.6113 8.504 91.5313 8.328C91.4513 8.152 91.4113 7.984 91.4113 7.824C91.4113 7.648 91.5313 7.528 91.7713 7.464C91.8673 7.416 91.9953 7.392 92.1553 7.392C92.3313 7.392 92.4273 7.416 92.4433 7.464L95.8033 15.552C95.9153 14.688 96.0513 13.816 96.2113 12.936C96.3873 12.056 96.6193 11.192 96.9073 10.344C97.1953 9.496 97.5473 8.68 97.9633 7.896C98.3953 7.112 98.9153 6.4 99.5233 5.76C99.6993 5.552 99.9393 5.296 100.243 4.992C100.547 4.688 100.843 4.392 101.131 4.104C101.419 3.816 101.667 3.568 101.875 3.36C102.099 3.152 102.219 3.048 102.235 3.048H103.243C103.339 3.208 103.307 3.384 103.147 3.576C103.003 3.752 102.819 3.92 102.595 4.08C102.387 4.24 102.171 4.384 101.947 4.512C101.723 4.64 101.587 4.712 101.539 4.728C100.499 5.768 99.6833 6.84 99.0913 7.944C98.4993 9.048 98.0433 10.2 97.7233 11.4C97.4033 12.6 97.1793 13.856 97.0513 15.168C96.9393 16.464 96.8673 17.832 96.8353 19.272L96.6673 19.344C96.6193 19.376 96.5553 19.408 96.4753 19.44C96.4113 19.472 96.3473 19.504 96.2833 19.536C96.2193 19.568 96.1713 19.592 96.1393 19.608C96.0913 19.624 96.0273 19.632 95.9473 19.632C95.8673 19.632 95.8193 19.624 95.8033 19.608ZM105.632 19.272C105.136 18.904 104.808 18.464 104.648 17.952C104.488 17.424 104.368 16.848 104.288 16.224C104.304 16.048 104.328 15.768 104.36 15.384C104.408 15 104.456 14.568 104.504 14.088C104.568 13.592 104.616 13.072 104.648 12.528C104.696 11.984 104.744 11.472 104.792 10.992C104.84 10.496 104.872 10.056 104.888 9.672C104.92 9.272 104.944 8.984 104.96 8.808C104.976 8.696 104.984 8.512 104.984 8.256V6.648C104.984 6.392 104.976 6.208 104.96 6.096L105.32 5.76L111.392 3.744H112.064C112.128 3.92 112.136 4.112 112.088 4.32C112.04 4.528 111.912 4.664 111.704 4.728L106.664 6.792L106.328 7.104C106.312 7.12 106.288 7.264 106.256 7.536C106.24 7.792 106.208 8.104 106.16 8.472C106.128 8.824 106.088 9.184 106.04 9.552C106.008 9.92 105.992 10.232 105.992 10.488C105.992 10.536 105.984 10.648 105.968 10.824C105.968 10.984 105.968 11.152 105.968 11.328C105.968 11.504 105.968 11.672 105.968 11.832C105.984 11.992 105.992 12.104 105.992 12.168L111.704 9.144C111.8 9.08 111.872 9.088 111.92 9.168C111.968 9.248 111.992 9.352 111.992 9.48C111.992 9.608 111.968 9.744 111.92 9.888C111.872 10.016 111.8 10.104 111.704 10.152C111.496 10.296 111.232 10.464 110.912 10.656C110.592 10.832 110.256 11.024 109.904 11.232C109.568 11.424 109.224 11.616 108.872 11.808C108.536 12 108.224 12.176 107.936 12.336C107.664 12.48 107.44 12.608 107.264 12.72C107.104 12.816 107.016 12.864 107 12.864H105.632V17.232C105.632 17.824 105.768 18.2 106.04 18.36C106.312 18.536 106.648 18.576 107.048 18.48C107.464 18.384 107.904 18.192 108.368 17.904C108.848 17.616 109.296 17.312 109.712 16.992C110.144 16.672 110.512 16.376 110.816 16.104C111.12 15.816 111.312 15.632 111.392 15.552C111.424 15.232 111.496 14.968 111.608 14.76C111.672 14.568 111.768 14.44 111.896 14.376C112.024 14.296 112.192 14.352 112.4 14.544C112.464 14.944 112.392 15.384 112.184 15.864C111.992 16.328 111.704 16.784 111.32 17.232C110.952 17.664 110.512 18.064 110 18.432C109.504 18.8 108.992 19.088 108.464 19.296C107.936 19.52 107.424 19.64 106.928 19.656C106.432 19.672 106 19.544 105.632 19.272ZM113.745 19.272V5.424C113.745 5.376 113.769 5.336 113.817 5.304C113.865 5.272 113.921 5.24 113.985 5.208C114.065 5.16 114.145 5.128 114.225 5.112C114.305 5.096 114.369 5.096 114.417 5.112C114.465 5.128 114.529 5.168 114.609 5.232C114.689 5.28 114.761 5.336 114.825 5.4C114.905 5.464 114.969 5.536 115.017 5.616C115.065 5.68 115.089 5.728 115.089 5.76V16.56C115.249 16.352 115.513 16.216 115.881 16.152C116.249 16.072 116.689 16.024 117.201 16.008C117.713 15.976 118.265 15.96 118.857 15.96C119.465 15.944 120.081 15.912 120.705 15.864C121.329 15.8 121.937 15.696 122.529 15.552C123.137 15.392 123.689 15.16 124.185 14.856C124.681 14.584 125.009 14.448 125.169 14.448C125.345 14.432 125.409 14.512 125.361 14.688C125.313 14.848 125.161 15.064 124.905 15.336C124.649 15.608 124.329 15.888 123.945 16.176C123.561 16.448 123.129 16.688 122.649 16.896C122.169 17.088 121.673 17.2 121.161 17.232C121.033 17.232 120.841 17.232 120.585 17.232C120.329 17.232 120.025 17.24 119.673 17.256C119.337 17.256 118.985 17.256 118.617 17.256C118.265 17.24 117.921 17.232 117.585 17.232H116.697C116.441 17.232 116.249 17.232 116.121 17.232C115.961 17.344 115.801 17.544 115.641 17.832C115.481 18.104 115.305 18.368 115.113 18.624C114.921 18.88 114.713 19.088 114.489 19.248C114.281 19.408 114.033 19.416 113.745 19.272Z" fill="#00BED4"/>
<path d="M0 20.4H126.057V21.6H0V20.4Z" fill="#00BED4"/>
</svg>
